<svg width="16" height="16" viewBox="0 0 16 16" fill="none" xmlns="http://www.w3.org/2000/svg">
<g clip-path="url(#clip0_20_1184)">
<mask id="mask0_20_1184" style="mask-type:luminance" maskUnits="userSpaceOnUse" x="0" y="0" width="16" height="16">
<path d="M16 0H0V16H16V0Z" fill="white"/>
</mask>
<g mask="url(#mask0_20_1184)">
<path d="M13.3291 15.5H2.67096C2.02574 15.5 1.5 14.9248 1.5 14.219V6.42811C1.5 5.98367 1.70313 5.57844 2.04963 5.34314L7.37866 1.69608C7.76104 1.43464 8.23896 1.43464 8.62134 1.69608L13.9504 5.34314C14.2968 5.57844 14.5 5.98367 14.5 6.42811V14.219C14.5 14.9248 13.9743 15.5 13.3291 15.5Z" stroke="#666666" stroke-linecap="round" stroke-linejoin="round"/>
<path d="M10 17.5H10.5V17V10.5C10.5 9.67157 9.82843 9 9 9H7C6.17157 9 5.5 9.67157 5.5 10.5V17V17.5H6H10Z" stroke="#666666"/>
</g>
</g>
<defs>
<clipPath id="clip0_20_1184">
<rect width="16" height="16" fill="white"/>
</clipPath>
</defs>
</svg>
