<svg width="24" height="24" viewBox="0 0 24 24" fill="none" xmlns="http://www.w3.org/2000/svg">
<g clip-path="url(#clip0_43_1511)">
<path d="M20.8694 13.6039C20.6816 13.5001 20.5811 13.288 20.6195 13.0769C20.6933 12.671 20.7301 12.266 20.7301 11.8616C20.7301 11.4131 20.6928 10.9999 20.653 10.5626C20.6351 10.3662 20.7344 10.1777 20.9063 10.0812L23.1618 8.81598L23.1695 8.81168L23.1695 8.81174C23.429 8.67216 23.5594 8.34095 23.4325 8.01258L21.156 4.16914L21.1544 4.16642C21.0149 3.92739 20.6665 3.7977 20.3684 3.89679L18.0283 5.18283C17.865 5.27257 17.6654 5.26407 17.5103 5.16077C17.3556 5.05769 17.2125 4.91652 17.135 4.83903C17.0866 4.79941 17.0394 4.76042 16.9929 4.72203C16.6317 4.42379 16.3143 4.16174 15.8478 3.91993C15.533 3.83582 15.4277 3.50591 15.4277 3.32125V1.89786C15.4277 1.13956 14.8142 0.5 14.0283 0.5H9.95263C9.19957 0.5 8.55326 1.14637 8.55326 1.89786V3.43987C8.55326 3.62291 8.4648 3.75086 8.42842 3.79933C8.39103 3.84914 8.34767 3.89218 8.33098 3.90875C8.32981 3.90991 8.32878 3.91094 8.32788 3.91183C8.32776 3.91195 8.32765 3.91206 8.32754 3.91217L7.97415 3.55851M20.8694 13.6039L7.97415 3.55851M20.8694 13.6039L23.082 14.8278M20.8694 13.6039L23.082 14.8278M7.97415 3.55851L7.97414 3.5585M7.97415 3.55851L7.97414 3.5585M7.97414 3.5585L7.97412 3.55848L7.97414 3.5585ZM0.548453 15.7106C0.421601 15.3823 0.551988 15.0511 0.811425 14.9115L0.811438 14.9115L0.815913 14.909L3.11098 13.6438C3.28483 13.548 3.38552 13.3583 3.36753 13.1606C3.32761 12.7218 3.29044 12.3096 3.29044 11.9012C3.29044 11.3738 3.29237 10.9922 3.35986 10.655C3.40311 10.4389 3.29982 10.22 3.10555 10.116L0.896283 8.93342C0.727047 8.83531 0.626666 8.70524 0.584729 8.53762C0.538491 8.35282 0.552708 8.15341 0.633608 7.92247L2.78698 4.20596C2.78709 4.20576 2.7872 4.20557 2.78731 4.20538C2.91434 3.98848 3.27709 3.75914 3.85296 4.07439L5.94732 5.25893C6.1428 5.3695 6.38802 5.33616 6.54688 5.17742C6.56304 5.16128 6.58908 5.13969 6.64416 5.09566C6.64646 5.09382 6.64885 5.09192 6.6513 5.08996C6.68865 5.06014 6.74318 5.01659 6.79512 4.96796L0.548453 15.7106ZM0.548453 15.7106L0.52988 15.6793L0.0996799 15.9341L0.559196 15.737C0.555429 15.7282 0.551849 15.7194 0.548453 15.7106ZM23.082 14.8278C23.2983 14.9521 23.4506 15.1397 23.4797 15.2413L23.9604 15.1038L23.4797 15.2413C23.5192 15.3794 23.5036 15.5562 23.4091 15.7229L21.203 19.4624C21.105 19.6047 20.9693 19.7046 20.8121 19.7439C20.6569 19.7827 20.4303 19.7748 20.128 19.6093L23.082 14.8278ZM6.8422 18.8816L6.51003 19.2554L6.51023 19.2551L6.51027 19.2551L6.86343 18.9017L6.85497 18.8932C6.85206 18.8906 6.84914 18.8879 6.84622 18.8853L6.84624 18.8852L6.84221 18.8817L6.8422 18.8816ZM3.65122 19.8124C3.63997 19.8165 3.62874 19.8202 3.61753 19.8237L3.57845 19.8452L3.81927 20.2834L3.65122 19.8124ZM8.15486 19.7988C8.11167 19.7888 8.0647 19.7834 8.01369 19.7834V20.2834L8.21397 19.8252C8.19405 19.8165 8.17435 19.8077 8.15486 19.7988Z" stroke="#333333" stroke-linejoin="round"/>
<circle cx="12" cy="12" r="4" stroke="#333333"/>
</g>
<defs>
<clipPath id="clip0_43_1511">
<rect width="24" height="24" fill="white"/>
</clipPath>
</defs>
</svg>
