<svg width="16" height="16" viewBox="0 0 16 16" fill="none" xmlns="http://www.w3.org/2000/svg">
<g clip-path="url(#clip0_20_1186)">
<mask id="mask0_20_1186" style="mask-type:luminance" maskUnits="userSpaceOnUse" x="0" y="0" width="16" height="16">
<path d="M16 0H0V16H16V0Z" fill="white"/>
</mask>
<g mask="url(#mask0_20_1186)">
<path d="M13.0031 0.666672H2.99688C1.70993 0.666672 0.666656 1.70994 0.666656 2.99689V13.0031C0.666656 14.2901 1.70993 15.3333 2.99688 15.3333H13.0031C14.2901 15.3333 15.3333 14.2901 15.3333 13.0031V2.99689C15.3333 1.70994 14.2901 0.666672 13.0031 0.666672Z" stroke="#666666" stroke-linecap="round" stroke-linejoin="round"/>
<path d="M5.72461 7.60248C6.84499 7.60248 7.75325 6.69421 7.75325 5.5738C7.75325 4.4534 6.84499 3.54514 5.72461 3.54514C4.60421 3.54514 3.69595 4.4534 3.69595 5.5738C3.69595 6.69421 4.60421 7.60248 5.72461 7.60248Z" stroke="#666666" stroke-linecap="round" stroke-linejoin="round"/>
<path d="M3.69595 15.3333L10.1521 8.87727L15.1689 13.8803" stroke="#666666" stroke-linecap="round" stroke-linejoin="round"/>
</g>
</g>
<defs>
<clipPath id="clip0_20_1186">
<rect width="16" height="16" fill="white"/>
</clipPath>
</defs>
</svg>
