<svg width="16" height="16" viewBox="0 0 16 16" fill="none" xmlns="http://www.w3.org/2000/svg">
<path d="M3.22144 5.9417H1.81477C1.1807 5.9417 0.666687 6.45571 0.666687 7.0898V12.3855C0.666687 13.0195 1.1807 13.5335 1.81477 13.5335H3.22144C3.85551 13.5335 4.36953 13.0195 4.36953 12.3855V7.0898C4.36953 6.45571 3.85551 5.9417 3.22144 5.9417Z" stroke="#666666" stroke-linecap="round" stroke-linejoin="round"/>
<path d="M8.70335 2.46643H7.29669C6.66263 2.46643 6.14862 2.98044 6.14862 3.61452V12.3855C6.14862 13.0196 6.66263 13.5336 7.29669 13.5336H8.70335C9.33742 13.5336 9.85149 13.0196 9.85149 12.3855V3.61452C9.85149 2.98044 9.33742 2.46643 8.70335 2.46643Z" stroke="#666666" stroke-linecap="round" stroke-linejoin="round"/>
<path d="M14.1853 8H12.7786C12.1446 8 11.6306 8.514 11.6306 9.14807V12.3855C11.6306 13.0195 12.1446 13.5336 12.7786 13.5336H14.1853C14.8194 13.5336 15.3334 13.0195 15.3334 12.3855V9.14807C15.3334 8.514 14.8194 8 14.1853 8Z" stroke="#666666" stroke-linecap="round" stroke-linejoin="round"/>
</svg>
