<svg width="16" height="16" viewBox="0 0 16 16" fill="none" xmlns="http://www.w3.org/2000/svg">
<path d="M2.66667 5.12963L3.49486 11.6775C3.66476 13.0219 3.7501 13.695 4.18057 14.0975C4.61181 14.5 5.24571 14.5 6.51505 14.5H9.48495C10.7543 14.5 11.389 14.5 11.8194 14.0975C12.2499 13.695 12.3352 13.0219 12.5051 11.6775L13.3333 5.12963M5.71429 2.94444C5.71429 2.18504 5.71429 1.80533 5.8301 1.5063C5.90668 1.30844 6.01897 1.12867 6.16055 0.977256C6.30213 0.825841 6.47023 0.705751 6.65524 0.623852C6.93486 0.5 7.2899 0.5 8 0.5C8.7101 0.5 9.06514 0.5 9.34476 0.623852C9.52977 0.705751 9.69787 0.825841 9.83945 0.977256C9.98103 1.12867 10.0933 1.30844 10.1699 1.5063C10.2857 1.80533 10.2857 2.18504 10.2857 2.94444M14 2.94444H2M6.09524 5.53704L6.47619 11.6481M9.90476 5.53704L9.52381 11.6481" stroke="#666666" stroke-linecap="round" stroke-linejoin="round"/>
</svg>
