<svg width="16" height="16" viewBox="0 0 16 16" fill="none" xmlns="http://www.w3.org/2000/svg">
<circle cx="8" cy="8" r="7" fill="white"/>
<path fill-rule="evenodd" clip-rule="evenodd" d="M8 15C11.866 15 15 11.866 15 8C15 4.13401 11.866 1 8 1C4.13401 1 1 4.13401 1 8C1 11.866 4.13401 15 8 15ZM9.803 5.13634L10.3333 4.60601L11.394 5.66667L10.8637 6.197L9.06066 8L10.8637 9.803L11.394 10.3333L10.3333 11.394L9.803 10.8637L8 9.06066L6.197 10.8637L5.66667 11.394L4.60601 10.3333L5.13634 9.803L6.93934 8L5.13634 6.197L4.60601 5.66667L5.66667 4.60601L6.197 5.13634L8 6.93934L9.803 5.13634Z" fill="#CCCCCC"/>
</svg>
