<svg width="16" height="16" viewBox="0 0 16 16" fill="none" xmlns="http://www.w3.org/2000/svg">
<path d="M11.256 14.2149C13.5078 14.2149 15.3333 12.3895 15.3333 10.1376C15.3333 7.8858 13.5078 6.06035 11.256 6.06035C9.00421 6.06035 7.17874 7.8858 7.17874 10.1376C7.17874 12.3895 9.00421 14.2149 11.256 14.2149Z" stroke="#666666" stroke-linecap="round" stroke-linejoin="round"/>
<path d="M4.20807 4.80224C6.16394 4.80224 7.74946 4.12421 7.74946 3.28782C7.74946 2.45143 6.16394 1.77341 4.20807 1.77341C2.2522 1.77341 0.666656 2.45143 0.666656 3.28782C0.666656 4.12421 2.2522 4.80224 4.20807 4.80224Z" stroke="#666666" stroke-linecap="round" stroke-linejoin="round"/>
<path d="M7.74946 12.7121C7.74946 13.5509 6.16516 14.2266 4.20807 14.2266C2.25097 14.2266 0.666656 13.5509 0.666656 12.7121" stroke="#666666" stroke-linecap="round" stroke-linejoin="round"/>
<path d="M6.98059 10.7201C6.32826 11.0696 5.32641 11.2909 4.20807 11.2909C2.25097 11.2909 0.666656 10.6153 0.666656 9.77654" stroke="#666666" stroke-linecap="round" stroke-linejoin="round"/>
<path d="M7.74946 6.53801C7.74946 7.37674 6.16516 8.0524 4.20807 8.0524C2.25097 8.0524 0.666656 7.37674 0.666656 6.53801" stroke="#666666" stroke-linecap="round" stroke-linejoin="round"/>
<path d="M7.74954 3.2878V7.7262" stroke="#666666" stroke-linecap="round" stroke-linejoin="round"/>
<path d="M0.666656 3.2878V12.7121" stroke="#666666" stroke-linecap="round" stroke-linejoin="round"/>
</svg>
