<svg width="16" height="16" viewBox="0 0 16 16" fill="none" xmlns="http://www.w3.org/2000/svg">
<g clip-path="url(#clip0_20_1179)">
<mask id="mask0_20_1179" style="mask-type:luminance" maskUnits="userSpaceOnUse" x="0" y="0" width="16" height="16">
<path d="M16 0H0V16H16V0Z" fill="white"/>
</mask>
<g mask="url(#mask0_20_1179)">
<path d="M15.1329 13.0673C15.1329 14.3219 14.1214 15.3333 12.8669 15.3333H3.13286C1.87834 15.3333 0.866852 14.3219 0.866852 13.0673V1.46799C1.76012 1.46799 1.76012 0.666672 2.65339 0.666672C3.54666 0.666672 3.54666 1.46799 4.43992 1.46799C5.33319 1.46799 5.33319 0.666672 6.22646 0.666672C7.11972 0.666672 7.11972 1.46799 8.00646 1.46799C8.89312 1.46799 8.89972 0.666672 9.79299 0.666672C10.6863 0.666672 10.6863 1.46799 11.5729 1.46799C12.4597 1.46799 12.4597 0.666672 13.3529 0.666672C14.2462 0.666672 14.2462 1.46799 15.1329 1.46799V13.0673Z" stroke="#666666" stroke-linecap="round" stroke-linejoin="round"/>
<path d="M9.38571 5.78329H12.0655" stroke="#666666" stroke-linecap="round" stroke-linejoin="round"/>
<path d="M9.38571 10.9655H12.0655" stroke="#666666" stroke-linecap="round" stroke-linejoin="round"/>
<path d="M3.93423 9.84235L6.17397 12.0821" stroke="#666666" stroke-linecap="round" stroke-linejoin="round"/>
<path d="M6.17397 9.84235L3.93423 12.0821" stroke="#666666" stroke-linecap="round" stroke-linejoin="round"/>
<path d="M6.39729 5.11333L5.05081 6.70941L3.93423 5.82269" stroke="#666666" stroke-linecap="round" stroke-linejoin="round"/>
</g>
</g>
<defs>
<clipPath id="clip0_20_1179">
<rect width="16" height="16" fill="white"/>
</clipPath>
</defs>
</svg>
