<svg width="24" height="24" viewBox="0 0 24 24" fill="none" xmlns="http://www.w3.org/2000/svg">
<path d="M3.45262 16.9111L3.10935 17.8093C2.69744 18.8608 3.49839 20 4.68837 20H19.3571C20.5014 20 21.3023 18.9046 20.8904 17.8751L20.5014 16.9111C20.181 16.1006 19.9064 14.7204 19.9064 13.8441V12.0916C19.9064 7.95121 16.6568 4.20514 12.3317 4.00798C7.80061 3.81081 4.0476 7.29401 4.0476 11.5878V13.8223C4.0476 14.8738 3.84165 15.9253 3.45262 16.9111Z" stroke="#333333" stroke-linecap="round" stroke-linejoin="round"/>
<path d="M14 4V3.07143C14 1.92857 13.1035 1 12 1C10.8966 1 10 1.92857 10 3.07143V4" stroke="#333333" stroke-linecap="round" stroke-linejoin="round"/>
<path d="M14.886 20.0831C14.886 21.6854 13.5919 23 11.9691 23C10.3464 23 9.05225 21.7059 9.05225 20.0831" stroke="#333333" stroke-linecap="round" stroke-linejoin="round"/>
<circle cx="20" cy="3" r="2" fill="#DF1D1D"/>
</svg>
