<svg width="16" height="16" viewBox="0 0 16 16" fill="none" xmlns="http://www.w3.org/2000/svg">
<g clip-path="url(#clip0_20_1181)">
<mask id="mask0_20_1181" style="mask-type:luminance" maskUnits="userSpaceOnUse" x="0" y="0" width="16" height="16">
<path d="M16 0H0V16H16V0Z" fill="white"/>
</mask>
<g mask="url(#mask0_20_1181)">
<path d="M8.00002 15.3333C12.0501 15.3333 15.3334 12.0501 15.3334 8.00001C15.3334 3.94992 12.0501 0.666672 8.00002 0.666672C3.94993 0.666672 0.666687 3.94992 0.666687 8.00001C0.666687 12.0501 3.94993 15.3333 8.00002 15.3333Z" stroke="#666666" stroke-linecap="round" stroke-linejoin="round"/>
<path d="M11.2073 8.91841C11.2073 10.481 9.76804 11.7421 7.99984 11.7421C6.23161 11.7421 4.79236 10.481 4.79236 8.91841" stroke="#666666" stroke-linecap="round" stroke-linejoin="round"/>
<path d="M10.2484 5.45044H10.3306" stroke="#666666" stroke-linecap="round" stroke-linejoin="round"/>
<path d="M5.66962 5.45044H5.75186" stroke="#666666" stroke-linecap="round" stroke-linejoin="round"/>
</g>
</g>
<defs>
<clipPath id="clip0_20_1181">
<rect width="16" height="16" fill="white"/>
</clipPath>
</defs>
</svg>
